<svg t="1726110404602" class="icon" viewBox="0 0 1328 1024" version="1.1" xmlns="http://www.w3.org/2000/svg" p-id="12005" width="32" height="32"><path d="M983.4851876 861.58181621H730.8140583a40.70963408 40.70963408 0 0 1 0-81.41926816h252.58066348a40.70963408 40.70963408 0 1 1 0.09046582 81.41926817zM372.29787881 785.5000332h-17.00758037a134.34179326 134.34179326 0 0 1-134.16086162-134.16086073V374.42319365a134.34179326 134.34179326 0 0 1 134.16086162-134.16086162h17.00758037a134.34179326 134.34179326 0 0 1 134.16086162 134.16086162v276.91597881A134.34179326 134.34179326 0 0 1 372.29787881 785.5000332z m-17.00758037-463.81843301a52.8320584 52.8320584 0 0 0-52.74159258 52.74159346v276.91597881a52.8320584 52.8320584 0 0 0 52.74159258 52.74159257h17.00758037a52.8320584 52.8320584 0 0 0 52.74159257-52.74159257V374.42319365a52.8320584 52.8320584 0 0 0-52.74159257-52.74159345h-17.00758037z" fill="#0071BC" p-id="12006"></path><path d="M1188.29988125 961.99891455h-178.67006191a40.70963408 40.70963408 0 0 1-39.3526459-30.48699287l-61.33584902-235.21121983H774.96139443a40.70963408 40.70963408 0 0 1-39.35264589-51.20367362l83.68091454-313.64511592a40.70963408 40.70963408 0 0 1 39.35264679-30.21559454 40.70963408 40.70963408 0 0 1 39.26218007 30.486992l80.15274668 307.58390332a40.43823662 40.43823662 0 0 1 3.25677129 12.39382265l59.70746337 229.15000811h92.7275001L930.29126592 196.11499502a73.00594424 73.00594424 0 0 0-140.0411417 0L679.06758974 566.12033809c-6.0612126 24.60671192-50.02761709 200.47233252-79.06715683 261.62724902-38.9003168 81.50973398-135.24645146 134.25132744-245.16246358 134.25132744A292.83796933 292.83796933 0 0 1 62.27139746 669.43234268V355.15396602a292.38564023 292.38564023 0 0 1 542.79512402-150.35424873 40.72772724 40.72772724 0 1 1-69.74917382 42.06662226 210.96637119 210.96637119 0 0 0-392.07901113 108.55902392v314.36884249a211.32823447 211.32823447 0 0 0 211.5996328 210.78543955c78.97669013 0 146.46421758-34.55795654 171.88512188-88.02327569 21.98320224-46.22805176 60.79305411-194.04925664 73.8201375-247.1527125l0.54279492-1.99024892 111.45393194-370.91000127a154.4252124 154.4252124 0 0 1 296.09473974 0l218.9273669 737.0253123a40.70963408 40.70963408 0 0 1-39.26218096 52.47019512zM827.97438535 614.790967h59.70746338l-29.49186884-113.26324922z" fill="#0071BC" p-id="12007"></path><path d="M704.12663076 961.99891455a40.70963408 40.70963408 0 0 1-39.35264589-51.20367363l27.13975576-100.41709746a40.70963408 40.70963408 0 1 1 78.70529267 20.8976124l-27.13975577 100.41709746a40.70963408 40.70963408 0 0 1-39.35264677 30.30606123z" fill="#0071BC" p-id="12008"></path></svg>